<svg width="125" height="103" viewBox="0 0 125 103" fill="none" xmlns="http://www.w3.org/2000/svg">
<path d="M9.18599 92C7.09663 92 5.48758 91.4957 4.35884 90.487C3.25412 89.4543 2.70176 87.9173 2.70176 85.876V72.9076C2.70176 70.8662 3.25412 69.3412 4.35884 68.3326C5.48758 67.2999 7.09663 66.7836 9.18599 66.7836H14.0492V69.5213H8.82575C7.93717 69.5213 7.2167 69.7855 6.66434 70.3139C6.11198 70.8422 5.8358 71.4786 5.8358 72.2231V86.5605C5.8358 87.3049 6.11198 87.9414 6.66434 88.4697C7.2167 88.998 7.93717 89.2622 8.82575 89.2622H12.1399V81.4451H9.11394V78.7434H15.1299V92H9.18599ZM26.3056 92C24.1922 92 22.6432 91.5557 21.6586 90.6671C20.6739 89.7545 20.1816 88.2776 20.1816 86.2362V79.752C20.1816 77.6867 20.6259 76.2097 21.5145 75.3211C22.403 74.4325 23.88 73.9883 25.9453 73.9883H26.918C28.6231 73.9883 29.9079 74.4686 30.7725 75.4292C31.6611 76.3658 32.1054 77.7467 32.1054 79.5719V84.255H23.2436V86.9567C23.2436 87.7012 23.4717 88.2776 23.928 88.6858C24.3843 89.0941 25.0568 89.2982 25.9453 89.2982H30.9526V92H26.3056ZM29.1154 81.5532V78.8514C29.1154 78.227 28.9113 77.7107 28.503 77.3024C28.0948 76.8942 27.5784 76.69 26.954 76.69H25.5851C24.7206 76.69 24.1082 76.8942 23.7479 77.3024C23.4117 77.6867 23.2436 78.263 23.2436 79.0315V81.5532H29.1154ZM46.8325 87.4971C46.8325 89.0101 46.3642 90.1388 45.4276 90.8833C44.515 91.6278 43.1821 92 41.429 92H36.7819V89.2982H41.7892C42.4376 89.2982 42.9299 89.1662 43.2662 88.902C43.6024 88.6138 43.7705 88.2055 43.7705 87.6772V85.7679C43.7705 84.6872 43.2542 84.1469 42.2215 84.1469H41.6091C39.928 84.1469 38.6672 83.7866 37.8266 83.0662C37.0101 82.3217 36.6018 81.1569 36.6018 79.5719V78.5272C36.6018 76.9182 37.0581 75.7654 37.9707 75.069C38.8833 74.3485 40.2282 73.9883 42.0053 73.9883H46.112V76.69H41.6451C41.0447 76.69 40.5644 76.8341 40.2042 77.1223C39.8439 77.3865 39.6638 77.7827 39.6638 78.3111V79.6079C39.6638 80.1603 39.8199 80.5685 40.1321 80.8327C40.4683 81.0969 40.8886 81.229 41.3929 81.229H41.8973C43.5063 81.229 44.7311 81.6252 45.5717 82.4178C46.4122 83.1863 46.8325 84.339 46.8325 85.876V87.4971ZM55.6732 92C54.4484 92 53.5118 91.6037 52.8633 90.8112C52.2149 90.0187 51.8907 88.974 51.8907 87.6772V76.69H49.5492V73.9883H51.8907V69.6654H54.9527V73.9883H59.1314V76.69H54.9527V87.8573C54.9527 88.3856 55.0848 88.7579 55.349 88.974C55.6131 89.1902 56.0214 89.2982 56.5737 89.2982H59.1314V92H55.6732ZM63.0777 67.9723C63.2938 67.8523 63.7381 67.6241 64.4105 67.2879C65.083 66.9517 65.5633 66.7836 65.8515 66.7836H66.3918C66.584 66.7836 66.8721 66.8556 67.2564 66.9997C67.6406 67.1438 68.0369 67.3119 68.4452 67.504C69.4538 67.9843 70.1023 68.2245 70.3904 68.2245H70.7507C70.9428 68.2245 71.3391 68.0444 71.9395 67.6842C72.5398 67.3239 72.9481 67.0718 73.1642 66.9277V69.5213C72.9721 69.6414 72.5759 69.8696 71.9755 70.2058C71.3991 70.542 70.9788 70.7101 70.7147 70.7101H70.1743C70.0542 70.7101 69.5139 70.506 68.5532 70.0977C67.3044 69.5454 66.5239 69.2692 66.2117 69.2692H65.8515C65.6353 69.2692 65.179 69.4493 64.4826 69.8095C63.7861 70.1698 63.3178 70.4219 63.0777 70.566V67.9723ZM73.5245 92C73.2123 92 72.8641 91.9039 72.4798 91.7118C72.1196 91.5197 71.8074 91.2555 71.5432 90.9193C70.9908 91.6398 70.2584 92 69.3458 92H66.8601C65.035 92 63.7021 91.6398 62.8615 90.9193C62.045 90.1748 61.6367 88.914 61.6367 87.1368V86.4164C61.6367 82.6939 63.3899 80.8327 66.8962 80.8327H70.6426V79.0315C70.6426 78.2871 70.4145 77.7107 69.9582 77.3024C69.5019 76.8942 68.8294 76.69 67.9408 76.69H63.0777V73.9883H67.5806C69.67 73.9883 71.207 74.4446 72.1916 75.3572C73.2003 76.2697 73.7046 77.7347 73.7046 79.752V88.3977C73.7046 88.7579 73.8367 89.0341 74.1009 89.2262C74.389 89.3943 74.8574 89.4784 75.5058 89.4784V92H73.5245ZM68.9855 89.2982C69.706 89.2982 70.1623 89.1301 70.3544 88.7939C70.5465 88.4577 70.6426 88.0254 70.6426 87.4971V83.5345H66.8601C66.2357 83.5345 65.7194 83.7386 65.3111 84.1469C64.9029 84.5551 64.6987 85.0715 64.6987 85.6959V87.4971C64.6987 88.1215 64.8428 88.5778 65.131 88.866C65.4192 89.1541 65.8755 89.2982 66.4999 89.2982H68.9855ZM92.1748 86.2362C92.1748 88.2536 91.6705 89.7185 90.6618 90.6311C89.6772 91.5437 88.1402 92 86.0508 92H85.5825C83.4931 92 81.9441 91.5437 80.9355 90.6311C79.9508 89.7185 79.4585 88.2536 79.4585 86.2362V79.752C79.4585 77.7347 79.9508 76.2697 80.9355 75.3572C81.9441 74.4446 83.4931 73.9883 85.5825 73.9883H86.0508C88.1402 73.9883 89.6772 74.4446 90.6618 75.3572C91.6705 76.2697 92.1748 77.7347 92.1748 79.752V86.2362ZM89.1128 79.0315C89.1128 78.2871 88.8847 77.7107 88.4284 77.3024C87.9721 76.8942 87.2996 76.69 86.411 76.69H85.2223C84.3337 76.69 83.6612 76.8942 83.205 77.3024C82.7487 77.7107 82.5205 78.2871 82.5205 79.0315V86.9567C82.5205 87.7012 82.7487 88.2776 83.205 88.6858C83.6612 89.0941 84.3337 89.2982 85.2223 89.2982H86.411C87.2996 89.2982 87.9721 89.0941 88.4284 88.6858C88.8847 88.2776 89.1128 87.7012 89.1128 86.9567V79.0315ZM117.893 85.876C117.893 87.9173 117.329 89.4543 116.2 90.487C115.095 91.4957 113.498 92 111.409 92H106.654V89.2622H111.769C112.658 89.2622 113.378 88.998 113.93 88.4697C114.483 87.9414 114.759 87.3049 114.759 86.5605V82.814C114.759 82.0935 114.567 81.5172 114.183 81.0849C113.822 80.6286 113.27 80.4004 112.526 80.4004H111.805C110.028 80.4004 108.623 79.8841 107.59 78.8514C106.558 77.7947 106.041 76.2697 106.041 74.2764V72.9076C106.041 70.8662 106.594 69.3412 107.698 68.3326C108.827 67.2999 110.436 66.7836 112.526 66.7836H117.317V69.5213H112.165C111.277 69.5213 110.556 69.7855 110.004 70.3139C109.452 70.8422 109.175 71.4786 109.175 72.2231V74.9609C109.175 75.7054 109.416 76.3298 109.896 76.8341C110.376 77.3144 111.001 77.5546 111.769 77.5546H112.49C114.195 77.5546 115.515 78.0469 116.452 79.0315C117.413 80.0162 117.893 81.5052 117.893 83.4985V85.876Z" fill="black"/>
<path d="M60.7632 5.02156L34.8955 27.5964C33.1319 29.1355 34.3568 32.0677 36.7722 32.0891L51.4964 32.2197" stroke="url(#paint0_linear_140_204)" stroke-width="1.29382"/>
<path d="M54.3597 17.4923L41.8199 27.6318C39.9657 29.131 41.159 32.1532 43.617 32.1835L58.6896 32.3694" stroke="url(#paint1_linear_140_204)" stroke-width="1.29382"/>
<path d="M52.006 26.1616L50.002 27.689C48.0751 29.1577 49.2505 32.2551 51.7457 32.2842L57.4636 32.3507" stroke="url(#paint2_linear_140_204)" stroke-width="1.29382"/>
<ellipse cx="1.7381" cy="1.59826" rx="1.7381" ry="1.59826" transform="matrix(0.971678 -0.236307 0.283142 0.959078 58.5015 3.9292)" fill="#163193"/>
<ellipse cx="1.7381" cy="1.59826" rx="1.7381" ry="1.59826" transform="matrix(0.971678 -0.236307 0.283142 0.959078 52.1304 16.509)" fill="#163193"/>
<ellipse cx="1.7381" cy="1.59826" rx="1.7381" ry="1.59826" transform="matrix(0.971678 -0.236307 0.283142 0.959078 49.7441 25.0696)" fill="#163193"/>
<path d="M53.3702 59.718L79.2696 37.1156C81.0292 35.5799 79.814 32.6541 77.4036 32.623L61.8618 32.4226" stroke="url(#paint3_linear_140_204)" stroke-width="1.29382"/>
<ellipse cx="1.7381" cy="1.59826" rx="1.7381" ry="1.59826" transform="matrix(-0.971678 0.236307 -0.283142 -0.959078 55.6328 60.8108)" fill="#E61300"/>
<path d="M59.9777 47.2273L72.523 37.0834C74.3765 35.5847 73.1847 32.5636 70.7274 32.5318L57.563 32.3614" stroke="url(#paint4_linear_140_204)" stroke-width="1.29382"/>
<path d="M62.1277 38.5772L64.1613 37.0272C66.0851 35.5609 64.9171 32.4686 62.4257 32.4322L57.5629 32.3609" stroke="url(#paint5_linear_140_204)" stroke-width="1.29382"/>
<ellipse cx="1.7381" cy="1.59826" rx="1.7381" ry="1.59826" transform="matrix(-0.971678 0.236307 -0.283142 -0.959078 62.0034 48.2305)" fill="#E61300"/>
<ellipse cx="1.7381" cy="1.59826" rx="1.7381" ry="1.59826" transform="matrix(-0.971678 0.236307 -0.283142 -0.959078 64.3896 39.6704)" fill="#E61300"/>
<defs>
<linearGradient id="paint0_linear_140_204" x1="42.6078" y1="9.43687" x2="48.3354" y2="32.9885" gradientUnits="userSpaceOnUse">
<stop stop-color="#163193"/>
<stop offset="0.77302" stop-color="#152664"/>
<stop offset="1"/>
</linearGradient>
<linearGradient id="paint1_linear_140_204" x1="43.9249" y1="20.03" x2="47.5827" y2="35.0705" gradientUnits="userSpaceOnUse">
<stop stop-color="#164194"/>
<stop offset="0.61" stop-color="#0A1F46"/>
<stop offset="1"/>
</linearGradient>
<linearGradient id="paint2_linear_140_204" x1="53.3933" y1="25.8242" x2="55.657" y2="35.1322" gradientUnits="userSpaceOnUse">
<stop offset="0.205" stop-color="#163193"/>
<stop offset="0.645" stop-color="#09143C"/>
<stop offset="0.788174"/>
</linearGradient>
<linearGradient id="paint3_linear_140_204" x1="64.576" y1="31.7625" x2="70.3693" y2="55.5839" gradientUnits="userSpaceOnUse">
<stop stop-color="#430000"/>
<stop offset="0.355" stop-color="#710000"/>
<stop offset="0.805" stop-color="#FF0000"/>
</linearGradient>
<linearGradient id="paint4_linear_140_204" x1="66.0165" y1="29.7991" x2="69.681" y2="44.8675" gradientUnits="userSpaceOnUse">
<stop/>
<stop offset="0.53" stop-color="#870000"/>
<stop offset="1" stop-color="#FF0000"/>
</linearGradient>
<linearGradient id="paint5_linear_140_204" x1="50.1141" y1="32.7165" x2="60.1151" y2="39.7978" gradientUnits="userSpaceOnUse">
<stop offset="0.49"/>
<stop offset="0.725" stop-color="#2F0000"/>
<stop offset="1" stop-color="#FF0000"/>
</linearGradient>
</defs>
</svg>
