<svg width="2880" height="1024" viewBox="0 0 2880 1024" fill="none" xmlns="http://www.w3.org/2000/svg">
<g clip-path="url(#clip0_770_114)">
<path d="M0 847.218C20.9423 768.278 132.267 625.741 410.028 687.114C757.23 763.83 578.669 480.313 750.616 433.616C888.174 396.258 960.039 128.972 978.777 0H1464.86C1456.92 0 1461.55 682.667 1464.86 1024L0 1024V863.896V847.218Z" fill="url(#paint0_linear_770_114)"/>
<path d="M2880 847.218C2859.06 768.278 2747.73 625.741 2469.97 687.114C2122.77 763.83 2301.33 480.313 2129.38 433.616C1991.83 396.258 1919.96 128.972 1901.22 0H1415.14C1423.08 0 1418.45 682.667 1415.14 1024L2880 1024V863.896V847.218Z" fill="url(#paint1_linear_770_114)"/>
</g>
<defs>
<linearGradient id="paint0_linear_770_114" x1="721.945" y1="561.616" x2="508.028" y2="1499.97" gradientUnits="userSpaceOnUse">
<stop stop-color="#164194"/>
<stop offset="1" stop-color="#07142E"/>
</linearGradient>
<linearGradient id="paint1_linear_770_114" x1="2158.05" y1="561.616" x2="2371.97" y2="1499.97" gradientUnits="userSpaceOnUse">
<stop stop-color="#164194"/>
<stop offset="1" stop-color="#07142E"/>
</linearGradient>
<clipPath id="clip0_770_114">
<rect width="2880" height="1024" fill="white"/>
</clipPath>
</defs>
</svg>
